<svg width="25" height="25" viewBox="0 0 25 25" fill="none" xmlns="http://www.w3.org/2000/svg">
<g id="solar:global-linear">
<g id="Group">
<path id="Vector" d="M22.9164 12.4992C22.9164 13.8672 22.647 15.2218 22.1234 16.4857C21.5999 17.7496 20.8326 18.898 19.8653 19.8653C18.898 20.8326 17.7496 21.5999 16.4857 22.1234C15.2218 22.647 13.8672 22.9164 12.4992 22.9164C11.1312 22.9164 9.7766 22.647 8.51273 22.1234C7.24886 21.5999 6.10048 20.8326 5.13315 19.8653C4.16583 18.898 3.39851 17.7496 2.87499 16.4857C2.35148 15.2218 2.08203 13.8672 2.08203 12.4992C2.08203 9.73641 3.17955 7.08676 5.13315 5.13315C7.08676 3.17955 9.73641 2.08203 12.4992 2.08203C15.262 2.08203 17.9117 3.17955 19.8653 5.13315C21.8189 7.08676 22.9164 9.73641 22.9164 12.4992Z" stroke="#0C151A" stroke-width="1.5"/>
<path id="Vector_2" d="M16.6674 12.4987C16.6674 13.8664 16.559 15.2216 16.3497 16.4852C16.1413 17.7487 15.834 18.8966 15.4465 19.8643C15.0601 20.832 14.6007 21.5987 14.0955 22.1227C13.5893 22.6456 13.0476 22.9154 12.5007 22.9154C11.9538 22.9154 11.4122 22.6456 10.907 22.1227C10.4007 21.5987 9.94133 20.831 9.55487 19.8643C9.16737 18.8966 8.86008 17.7497 8.65071 16.4852C8.43707 15.1671 8.33116 13.8339 8.33404 12.4987C8.33404 11.131 8.44133 9.77578 8.65071 8.51224C8.86008 7.2487 9.16737 6.10078 9.55487 5.13307C9.94133 4.16536 10.4007 3.3987 10.9059 2.87474C11.4122 2.35286 11.9538 2.08203 12.5007 2.08203C13.0476 2.08203 13.5892 2.35182 14.0945 2.87474C14.6007 3.3987 15.0601 4.16641 15.4465 5.13307C15.834 6.10078 16.1413 7.24766 16.3497 8.51224C16.5601 9.77578 16.6674 11.131 16.6674 12.4987Z" stroke="#0C151A" stroke-width="1.5"/>
<path id="Vector_3" d="M2.08398 12.5H22.9173" stroke="#0C151A" stroke-width="1.5" stroke-linecap="round"/>
</g>
</g>
</svg>
